<svg width="60" height="54" viewBox="0 0 60 54" fill="none" xmlns="http://www.w3.org/2000/svg">
<path d="M29.5627 54.0057C45.8898 54.0057 59.1255 41.9161 59.1255 27.0029C59.1255 12.0896 45.8898 0 29.5627 0C13.2357 0 0 12.0896 0 27.0029C0 41.9161 13.2357 54.0057 29.5627 54.0057Z" fill="#EE2737"/>
<path d="M28.0432 14.9889C28.0071 14.7292 27.9143 14.4787 27.7702 14.2522C27.6261 14.0256 27.4336 13.8276 27.2041 13.6698C26.9745 13.512 26.7125 13.3976 26.4336 13.3333C26.1547 13.269 25.8644 13.2562 25.58 13.2956C25.0055 13.4085 24.5019 13.7203 24.1755 14.1649C23.8492 14.6095 23.7256 15.1521 23.831 15.6781C24.24 17.7879 24.4385 19.9271 24.4241 22.0694C24.4247 22.2427 24.3877 22.4143 24.3154 22.5746C24.243 22.7348 24.1367 22.8806 24.0024 23.0034C23.8682 23.1263 23.7086 23.2239 23.5329 23.2907C23.3571 23.3574 23.1687 23.3921 22.9782 23.3926C22.7878 23.3931 22.5991 23.3595 22.4229 23.2937C22.2468 23.2279 22.0866 23.1311 21.9515 23.009C21.8164 22.8869 21.7091 22.7417 21.6357 22.5819C21.5623 22.422 21.5242 22.2506 21.5237 22.0773L21.5107 14.1856C21.5343 13.6952 21.3703 13.2126 21.0467 12.8198C20.7231 12.4271 20.2598 12.1485 19.7358 12.0315C19.4187 11.9883 19.0949 12.0094 18.7878 12.0933C18.4806 12.1771 18.1976 12.3216 17.959 12.5165C17.7204 12.7114 17.532 12.9518 17.4074 13.2206C17.2827 13.4894 17.2249 13.7799 17.238 14.0714L17.251 22.0773C17.258 22.4406 17.1075 22.7918 16.832 23.0549C16.5566 23.318 16.1783 23.4718 15.7791 23.4832C15.5807 23.4786 15.3853 23.4382 15.2042 23.3641C15.0232 23.2901 14.8602 23.184 14.7248 23.052C14.5894 22.92 14.4842 22.7648 14.4155 22.5954C14.3468 22.426 14.3159 22.2459 14.3246 22.0655C14.3134 19.9246 14.5119 17.787 14.9176 15.6781C15.0243 15.1515 14.9013 14.6079 14.5749 14.1624C14.2484 13.7169 13.744 13.4046 13.1687 13.2916C12.8836 13.2477 12.5917 13.2572 12.3108 13.3196C12.0299 13.3821 11.766 13.4961 11.5353 13.6547C11.3046 13.8132 11.112 14.0131 10.9693 14.2418C10.8266 14.4706 10.7369 14.7235 10.7055 14.985C10.1742 18.0329 9.95253 21.1189 10.0432 24.2038C10.0821 27.2755 11.7964 30.1266 14.6103 31.8042C15.87 32.513 16.6709 33.7377 16.7531 35.0885L16.9869 39.8062C17.0085 41.0033 18.0562 41.9721 19.3678 42.0075C19.9993 41.9904 20.5992 41.7524 21.0426 41.3431C21.4861 40.9338 21.739 40.3847 21.7488 39.8101L21.9782 35.2539C22.0691 33.9071 22.896 32.6863 24.1774 32.0089C25.5151 31.2462 26.6256 30.1955 27.4109 28.9496C28.1961 27.7036 28.6318 26.3009 28.6795 24.8654C28.8267 21.5614 28.6146 18.2535 28.0432 14.9889ZM40.6535 12.0039C35.0215 12.0039 32.2033 19.7815 32.2033 24.9205C32.2423 27.5748 33.7012 30.0399 36.1124 31.5167C37.2293 32.1862 37.9306 33.3006 38.0172 34.5175L38.2812 39.8101C38.2812 40.3825 38.5312 40.9314 38.9761 41.3361C39.421 41.7408 40.0244 41.9681 40.6535 41.9681C41.2827 41.9681 41.8861 41.7408 42.331 41.3361C42.7759 40.9314 43.0258 40.3825 43.0258 39.8101L43.2942 34.5175C43.3343 33.9172 43.5272 33.3336 43.8578 32.8128C44.1884 32.2921 44.6475 31.8483 45.199 31.5167C46.3868 30.7865 47.3624 29.8054 48.0424 28.6574C48.7224 27.5093 49.0866 26.2285 49.1037 24.9245C49.1037 19.7815 46.2899 12.0039 40.6535 12.0039Z" fill="white"/>
</svg>
